<svg width="308" height="308" viewBox="0 0 308 308" fill="none" xmlns="http://www.w3.org/2000/svg">
<g filter="url(#filter0_d_1_2)">
<rect x="4" width="300" height="300" rx="30" fill="black"/>
<path d="M25.416 28.24C29.64 28.24 31.752 31.24 31.752 37.24C31.752 43.24 29.64 46.24 25.416 46.24C23.416 46.24 21.864 45.544 20.76 44.152C19.656 42.76 19.104 40.456 19.104 37.24C19.104 34.024 19.656 31.72 20.76 30.328C21.864 28.936 23.416 28.24 25.416 28.24ZM22.104 42.928C22.84 44.096 23.944 44.68 25.416 44.68C26.888 44.68 27.992 44.096 28.728 42.928C29.464 41.744 29.832 39.848 29.832 37.24C29.832 34.632 29.464 32.744 28.728 31.576C27.992 30.392 26.888 29.8 25.416 29.8C23.944 29.8 22.84 30.392 22.104 31.576C21.384 32.744 21.024 34.632 21.024 37.24C21.024 39.848 21.384 41.744 22.104 42.928ZM36.1228 36.712V33.352H38.3548V36.712H36.1228ZM36.1228 46V42.64H38.3548V46H36.1228ZM20.04 64.48H30.552V66.088L24.792 71.728V71.776H25.536C27.232 71.776 28.528 72.184 29.424 73C30.336 73.816 30.792 75 30.792 76.552C30.792 78.376 30.248 79.784 29.16 80.776C28.088 81.752 26.552 82.24 24.552 82.24C22.824 82.24 21.304 81.824 19.992 80.992L20.568 79.432C21.912 80.232 23.24 80.632 24.552 80.632C25.96 80.632 27.032 80.288 27.768 79.6C28.504 78.912 28.872 77.896 28.872 76.552C28.872 75.416 28.488 74.576 27.72 74.032C26.968 73.472 25.76 73.192 24.096 73.192H22.344V71.704L28.08 66.136V66.088H20.04V64.48ZM36.1228 72.712V69.352H38.3548V72.712H36.1228ZM36.1228 82V78.64H38.3548V82H36.1228ZM30.288 102.088H22.704L22.368 107.752H22.416C23.36 107.192 24.424 106.912 25.608 106.912C27.32 106.912 28.648 107.376 29.592 108.304C30.536 109.232 31.008 110.544 31.008 112.24C31.008 114.192 30.456 115.68 29.352 116.704C28.264 117.728 26.664 118.24 24.552 118.24C22.92 118.24 21.416 117.856 20.04 117.088L20.52 115.504C21.864 116.256 23.208 116.632 24.552 116.632C27.576 116.632 29.088 115.168 29.088 112.24C29.088 111.008 28.76 110.072 28.104 109.432C27.448 108.776 26.504 108.448 25.272 108.448C24.008 108.448 22.96 108.816 22.128 109.552H20.448L20.976 100.48H30.288V102.088ZM36.1228 108.712V105.352H38.3548V108.712H36.1228ZM36.1228 118V114.64H38.3548V118H36.1228ZM21.24 137.392C22.264 136.624 23.656 136.24 25.416 136.24C27.176 136.24 28.56 136.624 29.568 137.392C30.592 138.16 31.104 139.176 31.104 140.44C31.104 142.376 29.984 143.744 27.744 144.544V144.592C30.416 145.376 31.752 146.936 31.752 149.272C31.752 150.792 31.184 152 30.048 152.896C28.928 153.792 27.384 154.24 25.416 154.24C23.448 154.24 21.904 153.792 20.784 152.896C19.664 152 19.104 150.792 19.104 149.272C19.104 148.248 19.448 147.336 20.136 146.536C20.824 145.736 21.808 145.136 23.088 144.736V144.688C22.016 144.288 21.184 143.72 20.592 142.984C20.016 142.248 19.728 141.4 19.728 140.44C19.728 139.176 20.232 138.16 21.24 137.392ZM25.416 143.92C26.648 143.664 27.608 143.248 28.296 142.672C28.984 142.08 29.328 141.392 29.328 140.608C29.328 139.744 28.984 139.056 28.296 138.544C27.608 138.032 26.648 137.776 25.416 137.776C24.2 137.776 23.256 138.032 22.584 138.544C21.928 139.04 21.6 139.728 21.6 140.608C21.6 141.408 21.928 142.104 22.584 142.696C23.256 143.272 24.2 143.68 25.416 143.92ZM25.344 145.432C23.888 145.72 22.784 146.192 22.032 146.848C21.296 147.504 20.928 148.288 20.928 149.2C20.928 150.288 21.328 151.144 22.128 151.768C22.928 152.392 24.024 152.704 25.416 152.704C26.808 152.704 27.896 152.392 28.68 151.768C29.464 151.128 29.856 150.272 29.856 149.2C29.856 147.264 28.352 146.008 25.344 145.432ZM36.1228 144.712V141.352H38.3548V144.712H36.1228ZM36.1228 154V150.64H38.3548V154H36.1228Z" fill="white"/>
<path d="M54.544 53.04C53.264 53.04 52.112 52.8907 51.088 52.592C50.064 52.2933 49.136 51.8347 48.304 51.216L48.944 49.168C49.776 49.7653 50.6187 50.2027 51.472 50.48C52.3253 50.7573 53.2853 50.896 54.352 50.896C56.4 50.896 57.8827 50.3733 58.8 49.328C59.7387 48.304 60.208 46.6613 60.208 44.4V42.928H60.144C59.568 43.6747 58.7787 44.272 57.776 44.72C56.7733 45.1467 55.664 45.36 54.448 45.36C52.2293 45.36 50.4907 44.6453 49.232 43.216C47.9733 41.7653 47.344 39.76 47.344 37.2C47.344 34.64 47.9733 32.6453 49.232 31.216C50.4907 29.7653 52.2293 29.04 54.448 29.04C55.664 29.04 56.784 29.264 57.808 29.712C58.832 30.1387 59.632 30.7253 60.208 31.472H60.272L60.304 29.36H62.704V44.4C62.704 47.3227 62.032 49.488 60.688 50.896C59.3653 52.3253 57.3173 53.04 54.544 53.04ZM54.992 43.216C55.9947 43.216 56.88 43.0347 57.648 42.672C58.4373 42.288 59.056 41.776 59.504 41.136C59.9733 40.4747 60.208 39.7173 60.208 38.864V35.536C60.208 34.704 59.9733 33.9573 59.504 33.296C59.056 32.6347 58.4373 32.1227 57.648 31.76C56.88 31.376 55.9947 31.184 54.992 31.184C53.3707 31.184 52.1013 31.7067 51.184 32.752C50.288 33.7973 49.84 35.28 49.84 37.2C49.84 39.12 50.288 40.6027 51.184 41.648C52.1013 42.6933 53.3707 43.216 54.992 43.216ZM75.1655 46.32C72.4988 46.32 70.4402 45.5733 68.9895 44.08C67.5388 42.5867 66.8135 40.4533 66.8135 37.68C66.8135 34.992 67.5068 32.88 68.8935 31.344C70.3015 29.808 72.2428 29.04 74.7175 29.04C77.0855 29.04 78.8988 29.7653 80.1575 31.216C81.4162 32.6453 82.0455 34.704 82.0455 37.392C82.0455 37.6053 82.0455 37.8293 82.0455 38.064C82.0455 38.2987 82.0348 38.5013 82.0135 38.672H68.1895V36.624H80.1575L79.6775 37.296C79.6775 35.2267 79.2615 33.68 78.4295 32.656C77.5975 31.632 76.3602 31.12 74.7175 31.12C72.9682 31.12 71.6242 31.6747 70.6855 32.784C69.7468 33.872 69.2775 35.4293 69.2775 37.456V38.096C69.2775 40.1013 69.7788 41.616 70.7815 42.64C71.7842 43.664 73.2562 44.176 75.1975 44.176C76.2215 44.176 77.2135 44.048 78.1735 43.792C79.1335 43.5147 79.9975 43.12 80.7655 42.608L81.3095 44.624C80.4988 45.1573 79.5602 45.5733 78.4935 45.872C77.4482 46.1707 76.3388 46.32 75.1655 46.32ZM92.836 46.32C90.916 46.32 89.5187 45.904 88.644 45.072C87.7907 44.24 87.364 42.8747 87.364 40.976V31.504H83.332V29.36H87.364V23.92H89.924V29.36H96.1V31.504H89.924V40.656C89.924 41.8933 90.18 42.7787 90.692 43.312C91.204 43.824 92.068 44.08 93.284 44.08C93.7533 44.08 94.18 44.048 94.564 43.984C94.948 43.8987 95.3533 43.7813 95.78 43.632L96.132 45.744C95.5773 45.936 95.0333 46.0747 94.5 46.16C93.988 46.2667 93.4333 46.32 92.836 46.32ZM105.053 46.32C103.922 46.32 102.823 46.2027 101.757 45.968C100.69 45.7333 99.7301 45.4027 98.8768 44.976L99.3568 42.864C100.253 43.2907 101.17 43.6213 102.109 43.856C103.069 44.0693 104.039 44.176 105.021 44.176C106.386 44.176 107.421 43.952 108.125 43.504C108.829 43.056 109.181 42.3947 109.181 41.52C109.181 40.9227 109.021 40.4427 108.701 40.08C108.381 39.7173 107.911 39.4187 107.293 39.184C106.674 38.9493 105.885 38.7253 104.925 38.512C103.645 38.192 102.546 37.8293 101.629 37.424C100.733 37.0187 100.039 36.5067 99.5488 35.888C99.0794 35.248 98.8448 34.4693 98.8448 33.552C98.8448 32.1013 99.3994 30.992 100.509 30.224C101.639 29.4347 103.218 29.04 105.245 29.04C106.311 29.04 107.367 29.1467 108.413 29.36C109.458 29.5733 110.386 29.8827 111.197 30.288L110.749 32.368C109.959 31.984 109.095 31.696 108.157 31.504C107.218 31.2907 106.279 31.184 105.341 31.184C104.039 31.184 103.058 31.3867 102.397 31.792C101.735 32.1973 101.405 32.7947 101.405 33.584C101.405 34.096 101.554 34.5227 101.853 34.864C102.173 35.2053 102.631 35.4933 103.229 35.728C103.847 35.9627 104.594 36.176 105.469 36.368C106.45 36.6027 107.325 36.8693 108.093 37.168C108.882 37.4453 109.543 37.7867 110.077 38.192C110.61 38.5973 111.015 39.0773 111.293 39.632C111.591 40.1653 111.741 40.8053 111.741 41.552C111.741 43.0667 111.154 44.24 109.981 45.072C108.807 45.904 107.165 46.32 105.053 46.32ZM123.242 46.32C121.322 46.32 119.925 45.904 119.05 45.072C118.197 44.24 117.77 42.8747 117.77 40.976V31.504H113.738V29.36H117.77V23.92H120.33V29.36H126.506V31.504H120.33V40.656C120.33 41.8933 120.586 42.7787 121.098 43.312C121.61 43.824 122.474 44.08 123.69 44.08C124.16 44.08 124.586 44.048 124.97 43.984C125.354 43.8987 125.76 43.7813 126.186 43.632L126.538 45.744C125.984 45.936 125.44 46.0747 124.906 46.16C124.394 46.2667 123.84 46.32 123.242 46.32ZM134.435 46.32C132.75 46.32 131.416 45.872 130.435 44.976C129.454 44.0587 128.963 42.832 128.963 41.296C128.963 39.376 129.742 37.904 131.299 36.88C132.856 35.8347 135.086 35.312 137.987 35.312H140.643C140.643 33.7973 140.291 32.7307 139.587 32.112C138.904 31.4933 137.742 31.184 136.099 31.184C134.968 31.184 133.912 31.3227 132.931 31.6C131.971 31.856 131 32.272 130.019 32.848L129.603 30.704C130.606 30.128 131.662 29.712 132.771 29.456C133.88 29.1787 135.086 29.04 136.387 29.04C138.008 29.04 139.31 29.264 140.291 29.712C141.294 30.1387 142.019 30.832 142.467 31.792C142.936 32.7307 143.171 33.9787 143.171 35.536V46H140.739V43.728H140.643C140.088 44.496 139.224 45.1253 138.051 45.616C136.899 46.0853 135.694 46.32 134.435 46.32ZM135.235 44.24C136.238 44.24 137.144 44.048 137.955 43.664C138.787 43.28 139.438 42.768 139.907 42.128C140.398 41.4667 140.643 40.7413 140.643 39.952V37.264H138.307C136.046 37.264 134.339 37.5947 133.187 38.256C132.035 38.896 131.459 39.8347 131.459 41.072C131.459 42.0533 131.79 42.832 132.451 43.408C133.112 43.9627 134.04 44.24 135.235 44.24ZM154.867 46.32C152.947 46.32 151.55 45.904 150.675 45.072C149.822 44.24 149.395 42.8747 149.395 40.976V31.504H145.363V29.36H149.395V23.92H151.955V29.36H158.131V31.504H151.955V40.656C151.955 41.8933 152.211 42.7787 152.723 43.312C153.235 43.824 154.099 44.08 155.315 44.08C155.785 44.08 156.211 44.048 156.595 43.984C156.979 43.8987 157.385 43.7813 157.811 43.632L158.163 45.744C157.609 45.936 157.065 46.0747 156.531 46.16C156.019 46.2667 155.465 46.32 154.867 46.32ZM163.303 46V29.36H165.863V46H163.303ZM164.583 26.192C164.028 26.192 163.569 26.0213 163.207 25.68C162.865 25.3173 162.695 24.848 162.695 24.272C162.695 23.7173 162.865 23.2693 163.207 22.928C163.569 22.5653 164.028 22.384 164.583 22.384C165.159 22.384 165.617 22.5653 165.959 22.928C166.321 23.2693 166.503 23.7173 166.503 24.272C166.503 24.848 166.321 25.3173 165.959 25.68C165.617 26.0213 165.159 26.192 164.583 26.192ZM179.549 46.32C177.735 46.32 176.178 45.9787 174.877 45.296C173.575 44.592 172.573 43.6 171.869 42.32C171.186 41.0187 170.845 39.472 170.845 37.68C170.845 35.888 171.186 34.352 171.869 33.072C172.573 31.7707 173.575 30.7787 174.877 30.096C176.178 29.392 177.735 29.04 179.549 29.04C180.445 29.04 181.298 29.136 182.109 29.328C182.919 29.4987 183.709 29.7867 184.477 30.192L183.997 32.24C183.271 31.8773 182.557 31.6107 181.853 31.44C181.149 31.2693 180.434 31.184 179.709 31.184C177.725 31.184 176.178 31.76 175.069 32.912C173.959 34.0427 173.405 35.632 173.405 37.68C173.405 39.7067 173.959 41.296 175.069 42.448C176.178 43.6 177.725 44.176 179.709 44.176C180.434 44.176 181.149 44.0907 181.853 43.92C182.557 43.7493 183.271 43.4827 183.997 43.12L184.477 45.168C183.709 45.552 182.919 45.84 182.109 46.032C181.298 46.224 180.445 46.32 179.549 46.32Z" fill="#4C70E5"/>
<path d="M48.976 86V62.64H51.536V86H48.976ZM62.948 86.32C60.708 86.32 58.9587 85.5627 57.7 84.048C56.4627 82.512 55.844 80.3893 55.844 77.68C55.844 74.9707 56.4627 72.8587 57.7 71.344C58.9587 69.808 60.708 69.04 62.948 69.04C64.1427 69.04 65.252 69.264 66.276 69.712C67.3 70.16 68.0893 70.7893 68.644 71.6H68.708V62.64H71.204V86H68.836L68.804 83.76H68.74C68.164 84.5493 67.3533 85.1787 66.308 85.648C65.2627 86.096 64.1427 86.32 62.948 86.32ZM63.46 84.176C64.484 84.176 65.38 83.9733 66.148 83.568C66.9373 83.1413 67.556 82.5653 68.004 81.84C68.4733 81.1147 68.708 80.2827 68.708 79.344V76.016C68.708 75.0773 68.4733 74.2453 68.004 73.52C67.556 72.7947 66.9373 72.2293 66.148 71.824C65.38 71.3973 64.484 71.184 63.46 71.184C61.86 71.184 60.6013 71.7493 59.684 72.88C58.788 73.9893 58.34 75.5893 58.34 77.68C58.34 79.7707 58.788 81.3813 59.684 82.512C60.6013 83.6213 61.86 84.176 63.46 84.176ZM84.0175 86.32C82.2042 86.32 80.6468 85.9787 79.3455 85.296C78.0442 84.592 77.0415 83.6 76.3375 82.32C75.6548 81.0187 75.3135 79.472 75.3135 77.68C75.3135 75.888 75.6548 74.352 76.3375 73.072C77.0415 71.7707 78.0442 70.7787 79.3455 70.096C80.6468 69.392 82.2042 69.04 84.0175 69.04C84.9135 69.04 85.7668 69.136 86.5775 69.328C87.3882 69.4987 88.1775 69.7867 88.9455 70.192L88.4655 72.24C87.7402 71.8773 87.0255 71.6107 86.3215 71.44C85.6175 71.2693 84.9028 71.184 84.1775 71.184C82.1935 71.184 80.6468 71.76 79.5375 72.912C78.4282 74.0427 77.8735 75.632 77.8735 77.68C77.8735 79.7067 78.4282 81.296 79.5375 82.448C80.6468 83.6 82.1935 84.176 84.1775 84.176C84.9028 84.176 85.6175 84.0907 86.3215 83.92C87.0255 83.7493 87.7402 83.4827 88.4655 83.12L88.9455 85.168C88.1775 85.552 87.3882 85.84 86.5775 86.032C85.7668 86.224 84.9135 86.32 84.0175 86.32Z" fill="#4C70E5"/>
<path d="M49.584 121V104.36H52.144V121H49.584ZM50.864 101.192C50.3093 101.192 49.8507 101.021 49.488 100.68C49.1467 100.317 48.976 99.848 48.976 99.272C48.976 98.7173 49.1467 98.2693 49.488 97.928C49.8507 97.5653 50.3093 97.384 50.864 97.384C51.44 97.384 51.8987 97.5653 52.24 97.928C52.6027 98.2693 52.784 98.7173 52.784 99.272C52.784 99.848 52.6027 100.317 52.24 100.68C51.8987 101.021 51.44 101.192 50.864 101.192ZM58.438 121V104.36H60.902V106.824H60.966C61.6273 105.907 62.4593 105.213 63.462 104.744C64.486 104.275 65.638 104.04 66.918 104.04C68.9447 104.04 70.438 104.648 71.398 105.864C72.358 107.059 72.838 108.904 72.838 111.4V121H70.31V111.848C70.31 109.928 69.9793 108.509 69.318 107.592C68.6567 106.653 67.6433 106.184 66.278 106.184C65.254 106.184 64.3367 106.419 63.526 106.888C62.7367 107.336 62.1073 107.965 61.638 108.776C61.19 109.565 60.966 110.483 60.966 111.528V121H58.438ZM81.374 121L75.102 104.36H77.854L83.134 119.144H83.198L88.478 104.36H91.23L84.958 121H81.374ZM100.816 121.32C99.1731 121.32 97.7331 120.968 96.4958 120.264C95.2798 119.56 94.3411 118.557 93.6798 117.256C93.0398 115.955 92.7198 114.429 92.7198 112.68C92.7198 110.909 93.0398 109.384 93.6798 108.104C94.3411 106.803 95.2798 105.8 96.4958 105.096C97.7331 104.392 99.1731 104.04 100.816 104.04C102.48 104.04 103.909 104.392 105.104 105.096C106.32 105.8 107.258 106.803 107.92 108.104C108.581 109.384 108.912 110.909 108.912 112.68C108.912 114.429 108.581 115.955 107.92 117.256C107.258 118.557 106.32 119.56 105.104 120.264C103.909 120.968 102.48 121.32 100.816 121.32ZM100.816 119.176C102.565 119.176 103.93 118.6 104.912 117.448C105.914 116.296 106.416 114.707 106.416 112.68C106.416 110.632 105.914 109.043 104.912 107.912C103.93 106.76 102.565 106.184 100.816 106.184C99.0664 106.184 97.6904 106.76 96.6878 107.912C95.7064 109.043 95.2158 110.632 95.2158 112.68C95.2158 114.707 95.7064 116.296 96.6878 117.448C97.6904 118.6 99.0664 119.176 100.816 119.176ZM112.969 121V97.64H115.529V111.496H115.593L124.169 104.36H127.497L117.833 112.36L127.913 121H124.585L115.593 113.192H115.529V121H112.969ZM136.759 121.32C134.093 121.32 132.034 120.573 130.583 119.08C129.133 117.587 128.407 115.453 128.407 112.68C128.407 109.992 129.101 107.88 130.487 106.344C131.895 104.808 133.837 104.04 136.311 104.04C138.679 104.04 140.493 104.765 141.751 106.216C143.01 107.645 143.639 109.704 143.639 112.392C143.639 112.605 143.639 112.829 143.639 113.064C143.639 113.299 143.629 113.501 143.607 113.672H129.783V111.624H141.751L141.271 112.296C141.271 110.227 140.855 108.68 140.023 107.656C139.191 106.632 137.954 106.12 136.311 106.12C134.562 106.12 133.218 106.675 132.279 107.784C131.341 108.872 130.871 110.429 130.871 112.456V113.096C130.871 115.101 131.373 116.616 132.375 117.64C133.378 118.664 134.85 119.176 136.791 119.176C137.815 119.176 138.807 119.048 139.767 118.792C140.727 118.515 141.591 118.12 142.359 117.608L142.903 119.624C142.093 120.157 141.154 120.573 140.087 120.872C139.042 121.171 137.933 121.32 136.759 121.32ZM151.312 121L145.04 104.36H147.792L153.072 119.144H153.135L158.416 104.36H161.168L154.896 121H151.312ZM165.115 121V104.36H167.675V121H165.115ZM166.395 101.192C165.841 101.192 165.382 101.021 165.019 100.68C164.678 100.317 164.507 99.848 164.507 99.272C164.507 98.7173 164.678 98.2693 165.019 97.928C165.382 97.5653 165.841 97.384 166.395 97.384C166.971 97.384 167.43 97.5653 167.771 97.928C168.134 98.2693 168.315 98.7173 168.315 99.272C168.315 99.848 168.134 100.317 167.771 100.68C167.43 101.021 166.971 101.192 166.395 101.192ZM173.969 121V104.36H176.401L176.433 107.848H176.497C176.988 107.059 177.617 106.387 178.385 105.832C179.153 105.256 180.028 104.819 181.009 104.52C181.991 104.2 183.025 104.04 184.113 104.04V106.28C182.705 106.28 181.425 106.568 180.273 107.144C179.121 107.72 178.204 108.488 177.521 109.448C176.86 110.408 176.529 111.485 176.529 112.68V121H173.969ZM195.524 121.32C193.604 121.32 192.206 120.904 191.332 120.072C190.478 119.24 190.052 117.875 190.052 115.976V106.504H186.02V104.36H190.052V98.92H192.612V104.36H198.788V106.504H192.612V115.656C192.612 116.893 192.868 117.779 193.38 118.312C193.892 118.824 194.756 119.08 195.972 119.08C196.441 119.08 196.868 119.048 197.252 118.984C197.636 118.899 198.041 118.781 198.468 118.632L198.82 120.744C198.265 120.936 197.721 121.075 197.188 121.16C196.676 121.267 196.121 121.32 195.524 121.32ZM208.311 121.32C206.37 121.32 204.919 120.712 203.959 119.496C203.02 118.28 202.551 116.435 202.551 113.96V104.36H205.079V113.512C205.079 115.432 205.399 116.861 206.039 117.8C206.679 118.717 207.65 119.176 208.951 119.176C209.954 119.176 210.839 118.941 211.607 118.472C212.396 118.003 213.004 117.373 213.431 116.584C213.879 115.773 214.103 114.856 214.103 113.832V104.36H216.631V121H214.199L214.167 118.536C213.527 119.432 212.706 120.125 211.703 120.616C210.7 121.085 209.57 121.32 208.311 121.32ZM225.873 121.32C224.187 121.32 222.854 120.872 221.873 119.976C220.891 119.059 220.401 117.832 220.401 116.296C220.401 114.376 221.179 112.904 222.737 111.88C224.294 110.835 226.523 110.312 229.425 110.312H232.081C232.081 108.797 231.729 107.731 231.025 107.112C230.342 106.493 229.179 106.184 227.536 106.184C226.406 106.184 225.35 106.323 224.369 106.6C223.409 106.856 222.438 107.272 221.457 107.848L221.041 105.704C222.043 105.128 223.099 104.712 224.209 104.456C225.318 104.179 226.523 104.04 227.825 104.04C229.446 104.04 230.747 104.264 231.729 104.712C232.731 105.139 233.457 105.832 233.905 106.792C234.374 107.731 234.609 108.979 234.609 110.536V121H232.177V118.728H232.081C231.526 119.496 230.662 120.125 229.489 120.616C228.337 121.085 227.131 121.32 225.873 121.32ZM226.673 119.24C227.675 119.24 228.582 119.048 229.393 118.664C230.225 118.28 230.875 117.768 231.345 117.128C231.835 116.467 232.081 115.741 232.081 114.952V112.264H229.745C227.483 112.264 225.777 112.595 224.625 113.256C223.473 113.896 222.897 114.835 222.897 116.072C222.897 117.053 223.227 117.832 223.889 118.408C224.55 118.963 225.478 119.24 226.673 119.24ZM239.757 121V97.64H242.317V121H239.757Z" fill="#0FA873"/>
<path d="M48.688 155V138.36H51.12L51.152 141.848H51.216C51.7067 141.059 52.336 140.387 53.104 139.832C53.872 139.256 54.7467 138.819 55.728 138.52C56.7093 138.2 57.744 138.04 58.832 138.04V140.28C57.424 140.28 56.144 140.568 54.992 141.144C53.84 141.72 52.9227 142.488 52.24 143.448C51.5787 144.408 51.248 145.485 51.248 146.68V155H48.688ZM67.8843 155.32C65.2176 155.32 63.1589 154.573 61.7083 153.08C60.2576 151.587 59.5323 149.453 59.5323 146.68C59.5323 143.992 60.2256 141.88 61.6123 140.344C63.0203 138.808 64.9616 138.04 67.4363 138.04C69.8043 138.04 71.6176 138.765 72.8763 140.216C74.1349 141.645 74.7643 143.704 74.7643 146.392C74.7643 146.605 74.7643 146.829 74.7643 147.064C74.7643 147.299 74.7536 147.501 74.7323 147.672H60.9083V145.624H72.8763L72.3963 146.296C72.3963 144.227 71.9803 142.68 71.1483 141.656C70.3163 140.632 69.0789 140.12 67.4363 140.12C65.6869 140.12 64.3429 140.675 63.4043 141.784C62.4656 142.872 61.9963 144.429 61.9963 146.456V147.096C61.9963 149.101 62.4976 150.616 63.5003 151.64C64.5029 152.664 65.9749 153.176 67.9163 153.176C68.9403 153.176 69.9323 153.048 70.8923 152.792C71.8523 152.515 72.7163 152.12 73.4843 151.608L74.0283 153.624C73.2176 154.157 72.2789 154.573 71.2123 154.872C70.1669 155.171 69.0576 155.32 67.8843 155.32ZM85.5548 155.32C83.6348 155.32 82.2374 154.904 81.3628 154.072C80.5094 153.24 80.0828 151.875 80.0828 149.976V140.504H76.0508V138.36H80.0828V132.92H82.6428V138.36H88.8188V140.504H82.6428V149.656C82.6428 150.893 82.8988 151.779 83.4108 152.312C83.9228 152.824 84.7868 153.08 86.0028 153.08C86.4721 153.08 86.8988 153.048 87.2828 152.984C87.6668 152.899 88.0721 152.781 88.4988 152.632L88.8508 154.744C88.2961 154.936 87.7521 155.075 87.2188 155.16C86.7068 155.267 86.1521 155.32 85.5548 155.32ZM98.3423 155.32C96.4009 155.32 94.9503 154.712 93.9903 153.496C93.0516 152.28 92.5823 150.435 92.5823 147.96V138.36H95.1102V147.512C95.1102 149.432 95.4303 150.861 96.0703 151.8C96.7103 152.717 97.6809 153.176 98.9823 153.176C99.9849 153.176 100.87 152.941 101.638 152.472C102.428 152.003 103.036 151.373 103.462 150.584C103.91 149.773 104.134 148.856 104.134 147.832V138.36H106.662V155H104.23L104.198 152.536C103.558 153.432 102.737 154.125 101.734 154.616C100.732 155.085 99.6009 155.32 98.3423 155.32ZM112.032 155V138.36H114.464L114.496 141.848H114.56C115.05 141.059 115.68 140.387 116.448 139.832C117.216 139.256 118.09 138.819 119.072 138.52C120.053 138.2 121.088 138.04 122.176 138.04V140.28C120.768 140.28 119.488 140.568 118.336 141.144C117.184 141.72 116.266 142.488 115.584 143.448C114.922 144.408 114.592 145.485 114.592 146.68V155H112.032ZM125.469 155V138.36H127.933V140.824H127.997C128.659 139.907 129.491 139.213 130.493 138.744C131.517 138.275 132.669 138.04 133.949 138.04C135.976 138.04 137.469 138.648 138.429 139.864C139.389 141.059 139.869 142.904 139.869 145.4V155H137.341V145.848C137.341 143.928 137.011 142.509 136.349 141.592C135.688 140.653 134.675 140.184 133.309 140.184C132.285 140.184 131.368 140.419 130.557 140.888C129.768 141.336 129.139 141.965 128.669 142.776C128.221 143.565 127.997 144.483 127.997 145.528V155H125.469Z" fill="#5FB332" fill-opacity="0.61"/>
<path d="M20.464 237.904V233.648L35.6 228.752V228.688L20.464 223.792V219.536L39.024 226.224V231.216L20.464 237.904ZM65.9473 238V214.64H70.4273V238H65.9473ZM51.9953 238V214.64H56.4753V238H51.9953ZM54.2352 227.824V223.888H68.1873V227.824H54.2352ZM83.0183 238.32C80.1383 238.32 77.9196 237.573 76.3623 236.08C74.8049 234.587 74.0263 232.453 74.0263 229.68C74.0263 226.992 74.7623 224.88 76.2343 223.344C77.7063 221.808 79.7329 221.04 82.3142 221.04C84.8103 221.04 86.7303 221.765 88.0743 223.216C89.4396 224.667 90.1223 226.725 90.1223 229.392C90.1223 229.691 90.1116 230.032 90.0903 230.416C90.0903 230.8 90.0796 231.088 90.0583 231.28H76.4903V228.24H86.6343L86.0263 229.168C86.0263 227.504 85.7169 226.267 85.0983 225.456C84.5009 224.645 83.5729 224.24 82.3142 224.24C80.9916 224.24 79.9996 224.667 79.3383 225.52C78.6769 226.352 78.3463 227.6 78.3463 229.264V230.544C78.3463 231.995 78.7303 233.083 79.4983 233.808C80.2876 234.533 81.4716 234.896 83.0503 234.896C84.0316 234.896 85.0129 234.779 85.9943 234.544C86.9969 234.288 87.8823 233.947 88.6503 233.52L89.2903 236.88C88.4796 237.328 87.5303 237.68 86.4423 237.936C85.3543 238.192 84.2129 238.32 83.0183 238.32ZM93.6508 238V214.64H98.1308V238H93.6508ZM102.901 238V214.64H107.381V238H102.901ZM119.476 238.32C117.748 238.32 116.244 237.968 114.964 237.264C113.684 236.56 112.692 235.557 111.988 234.256C111.305 232.955 110.964 231.429 110.964 229.68C110.964 227.909 111.305 226.384 111.988 225.104C112.692 223.803 113.684 222.8 114.964 222.096C116.244 221.392 117.748 221.04 119.476 221.04C121.246 221.04 122.761 221.392 124.02 222.096C125.3 222.8 126.281 223.803 126.964 225.104C127.668 226.384 128.02 227.909 128.02 229.68C128.02 231.429 127.668 232.955 126.964 234.256C126.281 235.557 125.3 236.56 124.02 237.264C122.761 237.968 121.246 238.32 119.476 238.32ZM119.508 234.896C120.83 234.896 121.844 234.448 122.548 233.552C123.273 232.635 123.636 231.344 123.636 229.68C123.636 227.995 123.273 226.704 122.548 225.808C121.844 224.912 120.83 224.464 119.508 224.464C118.185 224.464 117.161 224.912 116.436 225.808C115.71 226.704 115.348 227.995 115.348 229.68C115.348 231.344 115.71 232.635 116.436 233.552C117.161 234.448 118.185 234.896 119.508 234.896ZM129.625 243.44L131.769 233.104H136.793L133.369 243.44H129.625ZM155.278 238.32C152.569 238.32 150.084 237.723 147.822 236.528L148.622 232.56C149.924 233.157 151.065 233.595 152.046 233.872C153.049 234.149 154.03 234.288 154.99 234.288C156.164 234.288 157.113 234.075 157.838 233.648C158.564 233.221 159.086 232.539 159.406 231.6C159.726 230.64 159.886 229.36 159.886 227.76V214.64H164.462V228.624C164.462 231.909 163.716 234.352 162.222 235.952C160.729 237.531 158.414 238.32 155.278 238.32ZM172.739 238.32C171.097 238.32 169.795 237.861 168.835 236.944C167.897 236.027 167.427 234.8 167.427 233.264C167.427 231.344 168.174 229.861 169.667 228.816C171.182 227.771 173.326 227.248 176.099 227.248H178.307C178.307 226.224 178.041 225.499 177.507 225.072C176.974 224.645 176.057 224.432 174.755 224.432C173.71 224.432 172.686 224.56 171.683 224.816C170.702 225.072 169.699 225.477 168.675 226.032L168.163 222.576C169.23 222.043 170.339 221.659 171.491 221.424C172.665 221.168 173.945 221.04 175.331 221.04C177.102 221.04 178.521 221.253 179.587 221.68C180.675 222.107 181.465 222.8 181.955 223.76C182.446 224.699 182.691 225.947 182.691 227.504V238H178.499L178.467 236.08H178.403C177.806 236.763 176.985 237.307 175.939 237.712C174.894 238.117 173.827 238.32 172.739 238.32ZM174.339 234.992C175.086 234.992 175.758 234.864 176.355 234.608C176.953 234.352 177.422 234 177.763 233.552C178.126 233.083 178.307 232.571 178.307 232.016V230.128H176.739C175.011 230.128 173.721 230.352 172.867 230.8C172.014 231.227 171.587 231.899 171.587 232.816C171.587 233.499 171.822 234.032 172.291 234.416C172.782 234.8 173.465 234.992 174.339 234.992ZM189.822 238L184.318 221.36H188.99L192.894 235.056H192.958L196.83 221.36H201.502L195.998 238H189.822ZM207.771 238.32C206.128 238.32 204.827 237.861 203.867 236.944C202.928 236.027 202.459 234.8 202.459 233.264C202.459 231.344 203.205 229.861 204.699 228.816C206.213 227.771 208.357 227.248 211.131 227.248H213.339C213.339 226.224 213.072 225.499 212.539 225.072C212.005 224.645 211.088 224.432 209.786 224.432C208.741 224.432 207.717 224.56 206.715 224.816C205.733 225.072 204.731 225.477 203.707 226.032L203.195 222.576C204.261 222.043 205.371 221.659 206.523 221.424C207.696 221.168 208.976 221.04 210.363 221.04C212.133 221.04 213.552 221.253 214.619 221.68C215.707 222.107 216.496 222.8 216.987 223.76C217.477 224.699 217.722 225.947 217.722 227.504V238H213.531L213.499 236.08H213.435C212.837 236.763 212.016 237.307 210.97 237.712C209.925 238.117 208.859 238.32 207.771 238.32ZM209.371 234.992C210.117 234.992 210.789 234.864 211.387 234.608C211.984 234.352 212.453 234 212.795 233.552C213.157 233.083 213.339 232.571 213.339 232.016V230.128H211.771C210.043 230.128 208.752 230.352 207.899 230.8C207.045 231.227 206.619 231.899 206.619 232.816C206.619 233.499 206.853 234.032 207.323 234.416C207.813 234.8 208.496 234.992 209.371 234.992ZM227.276 238.32C226.081 238.32 224.908 238.203 223.756 237.968C222.625 237.733 221.612 237.413 220.716 237.008L221.292 233.616C222.316 234.021 223.329 234.341 224.332 234.576C225.335 234.789 226.305 234.896 227.244 234.896C228.225 234.896 228.951 234.768 229.42 234.512C229.889 234.235 230.124 233.808 230.124 233.232C230.124 232.891 230.039 232.613 229.868 232.4C229.697 232.165 229.388 231.963 228.94 231.792C228.513 231.6 227.905 231.419 227.116 231.248C225.601 230.864 224.364 230.437 223.404 229.968C222.444 229.477 221.74 228.891 221.292 228.208C220.844 227.525 220.62 226.736 220.62 225.84C220.62 224.283 221.228 223.099 222.444 222.288C223.66 221.456 225.42 221.04 227.724 221.04C228.833 221.04 229.911 221.147 230.956 221.36C232.001 221.552 233.025 221.861 234.028 222.288L233.452 225.648C232.513 225.243 231.575 224.944 230.636 224.752C229.697 224.56 228.78 224.464 227.884 224.464C226.924 224.464 226.22 224.581 225.772 224.816C225.324 225.051 225.1 225.424 225.1 225.936C225.1 226.235 225.185 226.501 225.356 226.736C225.548 226.949 225.857 227.152 226.284 227.344C226.711 227.515 227.287 227.675 228.012 227.824C229.164 228.101 230.145 228.411 230.956 228.752C231.788 229.093 232.471 229.488 233.004 229.936C233.537 230.384 233.932 230.885 234.188 231.44C234.465 231.995 234.604 232.624 234.604 233.328C234.604 234.907 233.964 236.133 232.684 237.008C231.404 237.883 229.601 238.32 227.276 238.32ZM237.927 238V221.36H242.055L242.087 223.6H242.151C242.727 222.747 243.42 222.107 244.231 221.68C245.063 221.253 245.991 221.04 247.015 221.04C248.06 221.04 248.967 221.264 249.735 221.712C250.503 222.139 251.068 222.768 251.431 223.6H251.495C252.092 222.704 252.817 222.053 253.671 221.648C254.524 221.243 255.537 221.04 256.711 221.04C258.503 221.04 259.783 221.552 260.551 222.576C261.34 223.579 261.735 225.275 261.735 227.664V238H257.415V228.304C257.415 227.024 257.233 226.096 256.871 225.52C256.508 224.944 255.932 224.656 255.143 224.656C254.14 224.656 253.361 225.04 252.807 225.808C252.252 226.555 251.975 227.6 251.975 228.944V238H247.687V227.76C247.687 226.757 247.484 225.989 247.079 225.456C246.673 224.923 246.108 224.656 245.383 224.656C244.465 224.656 243.708 225.061 243.111 225.872C242.535 226.661 242.247 227.685 242.247 228.944V238H237.927ZM266.988 230.864L266.348 214.64H271.692L271.052 230.864H266.988ZM269.036 238.32C268.183 238.32 267.511 238.085 267.02 237.616C266.551 237.147 266.316 236.517 266.316 235.728C266.316 234.917 266.551 234.277 267.02 233.808C267.511 233.339 268.183 233.104 269.036 233.104C269.868 233.104 270.519 233.339 270.988 233.808C271.479 234.277 271.724 234.917 271.724 235.728C271.724 236.517 271.479 237.147 270.988 237.616C270.519 238.085 269.868 238.32 269.036 238.32Z" fill="white"/>
</g>
<defs>
<filter id="filter0_d_1_2" x="0" y="0" width="308" height="308" filterUnits="userSpaceOnUse" color-interpolation-filters="sRGB">
<feFlood flood-opacity="0" result="BackgroundImageFix"/>
<feColorMatrix in="SourceAlpha" type="matrix" values="0 0 0 0 0 0 0 0 0 0 0 0 0 0 0 0 0 0 127 0" result="hardAlpha"/>
<feOffset dy="4"/>
<feGaussianBlur stdDeviation="2"/>
<feComposite in2="hardAlpha" operator="out"/>
<feColorMatrix type="matrix" values="0 0 0 0 0 0 0 0 0 0 0 0 0 0 0 0 0 0 0.25 0"/>
<feBlend mode="normal" in2="BackgroundImageFix" result="effect1_dropShadow_1_2"/>
<feBlend mode="normal" in="SourceGraphic" in2="effect1_dropShadow_1_2" result="shape"/>
</filter>
</defs>
</svg>
