<svg width="20" height="20" viewBox="0 0 420 420" fill="none" xmlns="http://www.w3.org/2000/svg">
<rect x="81" y="337" width="181" height="26" rx="13" fill="#2B72DB"/>
<rect x="56" y="299" width="230" height="26" rx="13" fill="#2B72DB"/>
<rect x="46.7661" y="224.36" width="247" height="26" rx="13" transform="rotate(9.91768 46.7661 224.36)" fill="#FF8A58"/>
<rect x="42" y="191.718" width="247" height="26" rx="13" transform="rotate(-5.27728 42 191.718)" fill="#FF8A58"/>
<rect x="41.2325" y="27" width="247" height="26" rx="13" transform="rotate(7.14192 41.2325 27)" fill="#FF8A58"/>
<rect x="42" y="161.408" width="247" height="26" rx="13" transform="rotate(-16.8041 42 161.408)" fill="#FF8A58"/>
<rect x="21" y="377" width="300" height="24" rx="12" fill="#9D9D9D"/>
<rect x="341" y="354" width="168" height="25" rx="12.5" transform="rotate(-90 341 354)" fill="#2B72DB"/>
<rect x="302" y="334" width="129" height="23" rx="11.5" transform="rotate(-90 302 334)" fill="#2B72DB"/>
<rect x="382" y="334" width="129" height="23" rx="11.5" transform="rotate(-90 382 334)" fill="#2B72DB"/>
</svg>
